<svg width="120" height="140" viewBox="0 0 120 140" fill="none" xmlns="http://www.w3.org/2000/svg">
<path d="M89.6354 101.656L73.8004 85.802V66.5159H46.1894V85.808L30.5303 101.656H89.6354Z" fill="#FFDDCE"/>
<path d="M86.7557 101.371L72.5598 97.5532L60 110.746L38.2839 87.9333L15.1998 94.1398C6.18946 96.5625 0 104.135 0 112.737V133.141C0 136.929 3.35249 140 7.48795 140H17.6433L19.4734 138.804H20.4254L22.2555 140H97.7338L100.42 138.244H102.648V120.818C102.649 111.823 96.1771 103.905 86.7557 101.371V101.371Z" fill="#407093"/>
<path d="M104.802 94.1392L81.72 87.9319L70.9897 99.2027L85.3289 103.059C94.3387 105.482 100.527 113.055 100.527 121.656V138.244H102.347V140H112.512C116.648 140 120 136.929 120 133.141V112.736C120 104.135 113.812 96.5621 104.802 94.1392V94.1392Z" fill="#365E7D"/>
<path d="M22.2558 140V128.781C22.2558 127.615 21.2233 126.669 19.9495 126.669C18.6758 126.669 17.6433 127.615 17.6433 128.781V140H22.2558Z" fill="#365E7D"/>
<path d="M102.347 140V128.781C102.347 127.615 101.314 126.669 100.041 126.669C98.7669 126.669 97.7344 127.615 97.7344 128.781V140H102.347Z" fill="#365E7D"/>
<path d="M18.396 41.3396L16.0316 38.9514H10.9779L8.61348 41.3396L5.49741 58.0931C5.20339 59.6744 6.53322 61.1179 8.28453 61.1179H18.7244C20.4757 61.1179 21.8055 59.6744 21.5115 58.0931L18.396 41.3396Z" fill="#E4F6FF"/>
<path d="M15.8114 37.267V16.0822C15.8114 14.9154 14.7789 13.9696 13.5052 13.9696C12.2315 13.9696 11.199 14.9154 11.199 16.0822V37.267H15.8114Z" fill="#407093"/>
<path d="M72.7777 14.3846H72.269H47.7211H47.2124C37.9702 14.3846 30.478 21.2477 30.478 29.7138V29.9553V44.4997L33.2454 46.7331H89.5118V29.9553V29.7138C89.5121 21.2479 82.0197 14.3846 72.7777 14.3846V14.3846Z" fill="#694B4B"/>
<path d="M72.778 14.3846H72.2693H70.1028V46.7331H86.9575L89.5121 44.4997V29.9553V29.7138C89.5123 21.2479 82.0199 14.3846 72.778 14.3846Z" fill="#694B4B"/>
<path d="M60 77.677C60.2782 77.677 60.5549 77.6727 60.8308 77.6642C67.4333 73.8229 71.9181 67.2006 72.3178 59.5935V32.8193H40.5669V39.8653C40.5669 42.4249 38.3015 44.4998 35.5076 44.4998H30.4832V52.0786C30.4832 54.0151 32.1969 55.5852 34.3112 55.5852C34.978 55.5852 35.521 56.064 35.5628 56.6738C36.3699 68.3966 46.999 77.677 60 77.677Z" fill="#FFDDCE"/>
<path d="M84.4928 44.4998C81.6985 44.4998 79.4334 42.4249 79.4334 39.8653V32.8193H70.1028V58.9045C69.6795 66.9632 64.6169 73.9036 57.3096 77.5384C58.1937 77.627 59.0901 77.677 60 77.677C73.001 77.677 83.6301 68.3966 84.4372 56.6738C84.4793 56.064 85.022 55.5852 85.6888 55.5852C87.8028 55.5852 89.5169 54.0154 89.5169 52.0786V44.4998H84.4928Z" fill="#FFCBBE"/>
<path d="M72.3178 23.8226V18.6005C69.5089 18.5803 67.2381 16.4901 67.2381 13.9122V4.52724L65.0833 1.36439L60.7869 0.112588C60.2717 -0.0375293 59.7186 -0.0375293 59.2033 0.112588L12.4306 13.7404C9.82139 14.5006 10.0847 17.9585 12.7837 18.3796L59.9953 25.7452L72.3178 23.8226Z" fill="#407093"/>
<path d="M72.3177 18.6814L65.5151 17.9106C61.8489 17.4952 58.1409 17.4952 54.475 17.9109L28.5864 20.8454V31.4132C28.5864 32.5584 29.5998 33.4867 30.85 33.4867H72.3177V18.6814Z" fill="#4A80AA"/>
<path d="M107.56 13.7406L65.0833 1.3645V13.7641C65.0833 16.3114 67.3271 18.377 70.1026 18.3969V24.1687L107.207 18.38C109.906 17.9583 110.169 14.5007 107.56 13.7406V13.7406Z" fill="#365E7D"/>
<path d="M70.1028 18.4302V33.4865H89.15C90.4001 33.4865 91.4135 32.5582 91.4135 31.413V20.8449L70.1028 18.4302Z" fill="#407093"/>
<path d="M18.3963 41.3395H8.61401V35.4573C8.61401 34.2074 9.71997 33.1943 11.0844 33.1943H15.9255C17.29 33.1943 18.396 34.2074 18.396 35.4573V41.3395H18.3963Z" fill="#FFE07D"/>
<path d="M73.8004 78.7415C73.8004 86.9468 71.2001 94.9757 66.3154 101.854L60 110.746L95.2353 91.5662L73.8004 78.7415Z" fill="#4A80AA"/>
<path d="M46.1996 78.7415C46.1996 86.9468 48.7998 94.9757 53.6845 101.854L59.9999 110.746L24.7646 91.5662L46.1996 78.7415Z" fill="#4A80AA"/>
<path d="M71.7615 91.167C68.1377 91.8979 64.1667 92.3031 59.9999 92.3031C55.8334 92.3031 51.8621 91.8979 48.2383 91.167C49.4965 94.9246 51.32 98.5247 53.6842 101.853L59.9999 110.746L66.3153 101.853C68.6798 98.5247 70.5033 94.9246 71.7615 91.167Z" fill="#F4FBFF"/>
</svg>
