<svg width="35" height="35" viewBox="0 0 35 35" fill="none" xmlns="http://www.w3.org/2000/svg">
<path d="M20.8496 17.5C20.8496 19.35 19.35 20.8496 17.5 20.8496C15.65 20.8496 14.1504 19.35 14.1504 17.5C14.1504 15.65 15.65 14.1504 17.5 14.1504C19.35 14.1504 20.8496 15.65 20.8496 17.5Z" fill="#F7F8FD"/>
<path d="M25.3336 11.5736C25.1726 11.1373 24.9157 10.7424 24.582 10.4182C24.2578 10.0844 23.8631 9.82753 23.4265 9.66651C23.0724 9.52899 22.5405 9.3653 21.5608 9.32071C20.501 9.27238 20.1832 9.26196 17.5001 9.26196C14.8167 9.26196 14.499 9.27211 13.4394 9.32044C12.4597 9.3653 11.9275 9.52899 11.5737 9.66651C11.1371 9.82753 10.7421 10.0844 10.4182 10.4182C10.0844 10.7424 9.82755 11.137 9.66627 11.5736C9.52875 11.9277 9.36506 12.4599 9.32047 13.4396C9.27213 14.4992 9.26172 14.817 9.26172 17.5003C9.26172 20.1834 9.27213 20.5012 9.32047 21.561C9.36506 22.5408 9.52875 23.0727 9.66627 23.4268C9.82755 23.8634 10.0842 24.258 10.418 24.5822C10.7421 24.916 11.1368 25.1729 11.5734 25.3339C11.9275 25.4717 12.4597 25.6354 13.4394 25.68C14.499 25.7283 14.8165 25.7384 17.4998 25.7384C20.1835 25.7384 20.5012 25.7283 21.5605 25.68C22.5403 25.6354 23.0724 25.4717 23.4265 25.3339C24.3029 24.9958 24.9956 24.3032 25.3336 23.4268C25.4712 23.0727 25.6349 22.5408 25.6797 21.561C25.7281 20.5012 25.7382 20.1834 25.7382 17.5003C25.7382 14.817 25.7281 14.4992 25.6797 13.4396C25.6351 12.4599 25.4714 11.9277 25.3336 11.5736ZM17.5001 22.6601C14.6501 22.6601 12.3398 20.3501 12.3398 17.5001C12.3398 14.6501 14.6501 12.34 17.5001 12.34C20.3498 12.34 22.6602 14.6501 22.6602 17.5001C22.6602 20.3501 20.3498 22.6601 17.5001 22.6601ZM22.8642 13.3419C22.1982 13.3419 21.6583 12.802 21.6583 12.136C21.6583 11.47 22.1982 10.9301 22.8642 10.9301C23.5301 10.9301 24.0701 11.47 24.0701 12.136C24.0698 12.802 23.5301 13.3419 22.8642 13.3419Z" fill="#F7F8FD"/>
<path d="M17.5 0C7.83649 0 0 7.83649 0 17.5C0 27.1635 7.83649 35 17.5 35C27.1635 35 35 27.1635 35 17.5C35 7.83649 27.1635 0 17.5 0ZM27.4882 21.643C27.4396 22.7127 27.2695 23.443 27.0212 24.0823C26.4991 25.4321 25.4321 26.4991 24.0823 27.0212C23.4433 27.2695 22.7127 27.4393 21.6432 27.4882C20.5716 27.5371 20.2293 27.5488 17.5003 27.5488C14.771 27.5488 14.4289 27.5371 13.357 27.4882C12.2876 27.4393 11.557 27.2695 10.918 27.0212C10.2472 26.7688 9.64001 26.3734 9.13799 25.862C8.6269 25.3603 8.23143 24.7528 7.97909 24.0823C7.73075 23.4433 7.56065 22.7127 7.51205 21.6432C7.46265 20.5714 7.45117 20.229 7.45117 17.5C7.45117 14.771 7.46265 14.4286 7.51179 13.357C7.56039 12.2873 7.73022 11.557 7.97855 10.9177C8.2309 10.2472 8.62663 9.63974 9.13799 9.13799C9.63974 8.62663 10.2472 8.23116 10.9177 7.97882C11.557 7.73048 12.2873 7.56065 13.357 7.51179C14.4286 7.46292 14.771 7.45117 17.5 7.45117C20.229 7.45117 20.5714 7.46292 21.643 7.51205C22.7127 7.56065 23.443 7.73048 24.0823 7.97855C24.7528 8.2309 25.3603 8.62663 25.8623 9.13799C26.3734 9.64001 26.7691 10.2472 27.0212 10.9177C27.2698 11.557 27.4396 12.2873 27.4885 13.357C27.5373 14.4286 27.5488 14.771 27.5488 17.5C27.5488 20.229 27.5373 20.5714 27.4882 21.643Z" fill="#F7F8FD"/>
</svg>
