<svg width="35" height="35" viewBox="0 0 35 35" fill="none" xmlns="http://www.w3.org/2000/svg">
<path fill-rule="evenodd" clip-rule="evenodd" d="M35 17.6041C34.9994 14.2394 34.0406 10.9453 32.2371 8.11184C30.4336 5.27835 27.8609 3.02412 24.8237 1.61601C21.7864 0.207897 18.4117 -0.295117 15.0991 0.166505C11.7865 0.628126 8.67475 2.03505 6.1322 4.22073C3.58965 6.40641 1.72278 9.27931 0.752604 12.4993C-0.217574 15.7193 -0.250435 19.1516 0.657916 22.3898C1.56627 25.6281 3.37779 28.5366 5.87803 30.7712C8.37826 33.0057 11.4625 34.4727 14.7656 34.9984V22.6953H10.3211V17.6041H14.7656V13.7242C14.7656 9.31217 17.3789 6.87309 21.3758 6.87309C22.6884 6.89149 23.9979 7.00656 25.2937 7.21738V11.5508H23.0859C22.7098 11.5007 22.3273 11.5364 21.9667 11.6551C21.6061 11.7739 21.2767 11.9727 21.0028 12.2369C20.7289 12.5011 20.5176 12.8238 20.3844 13.1813C20.2513 13.5387 20.1997 13.9217 20.2336 14.302V17.6049H25.0867L24.3117 22.6961H20.2336V35C24.3503 34.344 28.0993 32.2315 30.8062 29.0426C33.513 25.8537 35.0002 21.7977 35 17.6041V17.6041Z" fill="#F7F8FD"/>
</svg>
