<svg width="195" height="40" viewBox="0 0 195 40" fill="none" xmlns="http://www.w3.org/2000/svg">
<rect width="195" height="40" rx="20" fill="#EBEBEB"/>
<g clip-path="url(#clip0)">
<path d="M83.7059 19.0693C83.7059 19.0693 85.0886 21.1008 87.9868 22.8203C87.9868 22.8203 85.8878 5.08089 99.564 2C96.0601 14.8598 104.021 18.4865 106.923 11.6924C111.769 18.1627 108.09 23.8077 108.09 23.8077C110.077 24.094 111.746 21.923 111.746 21.923C111.761 22.1904 111.769 22.4597 111.769 22.7309C111.769 30.6115 105.381 37 97.5 37C89.6194 37 83.2308 30.6115 83.2308 22.7308C83.2308 21.4649 83.3965 20.2379 83.7059 19.0693Z" fill="#FF6536"/>
<path d="M111.746 21.923C111.746 21.923 110.077 24.094 108.09 23.8077C108.09 23.8077 111.769 18.1627 106.923 11.6924C104.021 18.4865 96.0601 14.8598 99.564 2C98.8316 2.16502 98.1447 2.37235 97.5 2.61646V37C105.381 37 111.769 30.6115 111.769 22.7308C111.769 22.4596 111.761 22.1904 111.746 21.923Z" fill="#FF421D"/>
<path d="M91.2421 30.7421C91.2421 34.1982 94.0439 37 97.5 37C100.956 37 103.758 34.1982 103.758 30.7421C103.758 28.8923 102.955 27.2299 101.679 26.0843C99.2597 29.3713 95.8118 24.3851 98.4989 20.7439C98.4989 20.7439 91.2421 21.6533 91.2421 30.7421Z" fill="#FBBF00"/>
<path d="M103.758 30.7421C103.758 28.8923 102.955 27.2299 101.679 26.0843C99.2597 29.3713 95.8118 24.3851 98.4989 20.7439C98.4989 20.7439 98.1046 20.7935 97.5 20.9842V37C100.956 37 103.758 34.1982 103.758 30.7421Z" fill="#FFA900"/>
</g>
<path d="M42.7044 8.03943C47.2857 8.03943 51 11.7538 51 16.3342C51 23.9051 35.9996 33.9606 35.9996 33.9606C35.9996 33.9606 21 24.2675 21 16.3341C21 10.6314 24.7144 8.03943 29.2947 8.03943C32.0538 8.03943 34.491 9.39252 35.9996 11.4642C37.5084 9.39252 39.946 8.03943 42.7044 8.03943Z" fill="#F44336"/>
<path d="M164.172 20.9496H156.556C156.159 20.9496 155.811 20.6841 155.706 20.3013C155.602 19.9184 155.766 19.5129 156.108 19.3109C159.426 17.3501 161.15 15.0629 161.377 12.3185C161.456 11.366 162.305 10.6052 163.268 10.6178C164.25 10.6335 165.171 11.0274 165.86 11.727C166.55 12.4273 166.931 13.3546 166.931 14.338C166.931 14.3381 166.931 14.3382 166.931 14.3384V14.6342C166.931 17.0365 166.219 18.5683 164.906 20.5545C164.743 20.8012 164.467 20.9496 164.172 20.9496Z" fill="#FFC380"/>
<path d="M173.506 21.9475C173.506 20.4262 172.268 19.1885 170.747 19.1885H156.556C156.398 19.1885 156.243 19.2308 156.108 19.3111C155.111 19.9 154.106 20.3849 153.297 20.7746C153.015 20.9105 152.749 21.0389 152.507 21.1599C152.209 21.3091 152.02 21.614 152.02 21.9475V33.2186C152.02 33.5521 152.209 33.857 152.507 34.0062C156.065 35.7849 159.023 36 162.472 36C163.006 36 163.552 35.9948 164.113 35.9896C164.735 35.9837 165.377 35.9776 166.05 35.9776H168.834C170.355 35.9776 171.593 34.7399 171.593 33.2186C171.593 32.707 171.453 32.2276 171.21 31.8165C172.002 31.3312 172.532 30.4572 172.532 29.4615C172.532 28.95 172.392 28.4706 172.149 28.0594C172.942 27.5742 173.472 26.7001 173.472 25.7045C173.472 24.989 173.198 24.3362 172.75 23.8454C173.238 23.3309 173.506 22.6599 173.506 21.9475Z" fill="#FFCF99"/>
<path d="M171.674 14.2685H169.795C169.309 14.2685 168.915 13.8743 168.915 13.388C168.915 12.9017 169.309 12.5074 169.795 12.5074H171.674C172.16 12.5074 172.555 12.9017 172.555 13.388C172.555 13.8743 172.16 14.2685 171.674 14.2685Z" fill="#29CCB1"/>
<path d="M158.524 14.2685H156.646C156.16 14.2685 155.765 13.8743 155.765 13.388C155.765 12.9017 156.16 12.5074 156.646 12.5074H158.524C159.011 12.5074 159.405 12.9017 159.405 13.388C159.405 13.8743 159.011 14.2685 158.524 14.2685Z" fill="#29CCB1"/>
<path d="M161.343 9.38818C161.039 9.38818 160.743 9.23027 160.58 8.94779L159.64 7.32093C159.397 6.89982 159.542 6.36123 159.963 6.11812C160.384 5.87496 160.922 6.01927 161.166 6.44039L162.105 8.06724C162.348 8.48836 162.204 9.02695 161.783 9.27005C161.644 9.35015 161.492 9.38818 161.343 9.38818Z" fill="#29CCB1"/>
<path d="M166.977 9.38823C166.827 9.38823 166.676 9.3502 166.537 9.27011C166.116 9.02694 165.972 8.48841 166.215 8.06729L167.154 6.44044C167.398 6.01933 167.936 5.87489 168.357 6.11817C168.778 6.36134 168.923 6.89987 168.679 7.32099L167.74 8.94784C167.577 9.23032 167.281 9.38823 166.977 9.38823Z" fill="#29CCB1"/>
<path d="M150.012 31.3511V35.9887H148.251V31.3511C148.251 30.8651 148.646 30.4706 149.132 30.4706C149.618 30.4706 150.012 30.8651 150.012 31.3511Z" fill="#73C3FF"/>
<path d="M171.674 14.2685H169.795C169.309 14.2685 168.915 13.8743 168.915 13.388C168.915 12.9017 169.309 12.5074 169.795 12.5074H171.674C172.16 12.5074 172.555 12.9017 172.555 13.388C172.555 13.8743 172.16 14.2685 171.674 14.2685Z" fill="#29CCB1"/>
<path d="M158.524 14.2685H156.646C156.16 14.2685 155.765 13.8743 155.765 13.388C155.765 12.9017 156.16 12.5074 156.646 12.5074H158.524C159.011 12.5074 159.405 12.9017 159.405 13.388C159.405 13.8743 159.011 14.2685 158.524 14.2685Z" fill="#29CCB1"/>
<path d="M161.343 9.38818C161.039 9.38818 160.743 9.23027 160.58 8.94779L159.64 7.32093C159.397 6.89982 159.542 6.36123 159.963 6.11812C160.384 5.87496 160.922 6.01927 161.166 6.44039L162.105 8.06724C162.348 8.48836 162.204 9.02695 161.783 9.27005C161.644 9.35015 161.492 9.38818 161.343 9.38818Z" fill="#29CCB1"/>
<path d="M166.977 9.38823C166.827 9.38823 166.676 9.3502 166.537 9.27011C166.116 9.02694 165.972 8.48841 166.215 8.06729L167.154 6.44044C167.398 6.01933 167.936 5.87489 168.357 6.11817C168.778 6.36134 168.923 6.89987 168.679 7.32099L167.74 8.94784C167.577 9.23032 167.281 9.38823 166.977 9.38823Z" fill="#29CCB1"/>
<path d="M150.012 31.3511V35.9887H148.251V31.3511C148.251 30.8651 148.646 30.4706 149.132 30.4706C149.618 30.4706 150.012 30.8651 150.012 31.3511Z" fill="#73C3FF"/>
<path d="M152.889 19.1885H145.375C144.889 19.1885 144.494 19.583 144.494 20.069V35.097C144.494 35.5836 144.889 35.9776 145.375 35.9887H151.01C152.09 35.9776 153.026 35.3547 153.479 34.4495C153.665 34.0791 153.77 33.6605 153.77 33.2185V20.069C153.77 19.5829 153.375 19.1885 152.889 19.1885Z" fill="#44A4EC"/>
<path d="M150.012 31.2924V35.9887H148.251V31.2924C148.251 30.8064 148.646 30.4119 149.132 30.4119C149.618 30.4119 150.012 30.8064 150.012 31.2924Z" fill="#73C3FF"/>
<defs>
<clipPath id="clip0">
<rect width="35" height="35" fill="white" transform="translate(80 2)"/>
</clipPath>
</defs>
</svg>
