<svg width="85" height="63" viewBox="0 0 85 63" fill="none" xmlns="http://www.w3.org/2000/svg">
<path d="M17.4721 44.6779V45.4179H15.5721V51.6479H14.6621V45.4179H12.7521V44.6779H17.4721ZM18.2523 48.8879C18.2523 48.3279 18.3656 47.8379 18.5923 47.4179C18.8189 46.9912 19.1289 46.6612 19.5223 46.4279C19.9223 46.1945 20.3656 46.0779 20.8523 46.0779C21.3323 46.0779 21.7489 46.1812 22.1023 46.3879C22.4556 46.5945 22.7189 46.8545 22.8923 47.1679V46.1679H23.8123V51.6479H22.8923V50.6279C22.7123 50.9479 22.4423 51.2145 22.0823 51.4279C21.7289 51.6345 21.3156 51.7379 20.8423 51.7379C20.3556 51.7379 19.9156 51.6179 19.5223 51.3779C19.1289 51.1379 18.8189 50.8012 18.5923 50.3679C18.3656 49.9345 18.2523 49.4412 18.2523 48.8879ZM22.8923 48.8979C22.8923 48.4845 22.8089 48.1245 22.6423 47.8179C22.4756 47.5112 22.2489 47.2779 21.9623 47.1179C21.6823 46.9512 21.3723 46.8679 21.0323 46.8679C20.6923 46.8679 20.3823 46.9479 20.1023 47.1079C19.8223 47.2679 19.5989 47.5012 19.4323 47.8079C19.2656 48.1145 19.1823 48.4745 19.1823 48.8879C19.1823 49.3079 19.2656 49.6745 19.4323 49.9879C19.5989 50.2945 19.8223 50.5312 20.1023 50.6979C20.3823 50.8579 20.6923 50.9379 21.0323 50.9379C21.3723 50.9379 21.6823 50.8579 21.9623 50.6979C22.2489 50.5312 22.4756 50.2945 22.6423 49.9879C22.8089 49.6745 22.8923 49.3112 22.8923 48.8979ZM26.2601 44.2479V51.6479H25.3501V44.2479H26.2601ZM30.201 51.7379C29.6877 51.7379 29.221 51.6212 28.801 51.3879C28.3877 51.1545 28.061 50.8245 27.821 50.3979C27.5877 49.9645 27.471 49.4645 27.471 48.8979C27.471 48.3379 27.591 47.8445 27.831 47.4179C28.0777 46.9845 28.411 46.6545 28.831 46.4279C29.251 46.1945 29.721 46.0779 30.241 46.0779C30.761 46.0779 31.231 46.1945 31.651 46.4279C32.071 46.6545 32.401 46.9812 32.641 47.4079C32.8877 47.8345 33.011 48.3312 33.011 48.8979C33.011 49.4645 32.8843 49.9645 32.631 50.3979C32.3843 50.8245 32.0477 51.1545 31.621 51.3879C31.1943 51.6212 30.721 51.7379 30.201 51.7379ZM30.201 50.9379C30.5277 50.9379 30.8343 50.8612 31.121 50.7079C31.4077 50.5545 31.6377 50.3245 31.811 50.0179C31.991 49.7112 32.081 49.3379 32.081 48.8979C32.081 48.4579 31.9943 48.0845 31.821 47.7779C31.6477 47.4712 31.421 47.2445 31.141 47.0979C30.861 46.9445 30.5577 46.8679 30.231 46.8679C29.8977 46.8679 29.591 46.9445 29.311 47.0979C29.0377 47.2445 28.8177 47.4712 28.651 47.7779C28.4843 48.0845 28.401 48.4579 28.401 48.8979C28.401 49.3445 28.481 49.7212 28.641 50.0279C28.8077 50.3345 29.0277 50.5645 29.301 50.7179C29.5743 50.8645 29.8743 50.9379 30.201 50.9379ZM36.8775 46.0679C37.5442 46.0679 38.0842 46.2712 38.4975 46.6779C38.9108 47.0779 39.1175 47.6579 39.1175 48.4179V51.6479H38.2175V48.5479C38.2175 48.0012 38.0808 47.5845 37.8075 47.2979C37.5342 47.0045 37.1608 46.8579 36.6875 46.8579C36.2075 46.8579 35.8242 47.0079 35.5375 47.3079C35.2575 47.6079 35.1175 48.0445 35.1175 48.6179V51.6479H34.2075V46.1679H35.1175V46.9479C35.2975 46.6679 35.5408 46.4512 35.8475 46.2979C36.1608 46.1445 36.5042 46.0679 36.8775 46.0679ZM45.48 51.7179C45.02 51.7179 44.6067 51.6379 44.24 51.4779C43.88 51.3112 43.5967 51.0845 43.39 50.7979C43.1833 50.5045 43.0767 50.1679 43.07 49.7879H44.04C44.0733 50.1145 44.2067 50.3912 44.44 50.6179C44.68 50.8379 45.0267 50.9479 45.48 50.9479C45.9133 50.9479 46.2533 50.8412 46.5 50.6279C46.7533 50.4079 46.88 50.1279 46.88 49.7879C46.88 49.5212 46.8067 49.3045 46.66 49.1379C46.5133 48.9712 46.33 48.8445 46.11 48.7579C45.89 48.6712 45.5933 48.5779 45.22 48.4779C44.76 48.3579 44.39 48.2379 44.11 48.1179C43.8367 47.9979 43.6 47.8112 43.4 47.5579C43.2067 47.2979 43.11 46.9512 43.11 46.5179C43.11 46.1379 43.2067 45.8012 43.4 45.5079C43.5933 45.2145 43.8633 44.9879 44.21 44.8279C44.5633 44.6679 44.9667 44.5879 45.42 44.5879C46.0733 44.5879 46.6067 44.7512 47.02 45.0779C47.44 45.4045 47.6767 45.8379 47.73 46.3779H46.73C46.6967 46.1112 46.5567 45.8779 46.31 45.6779C46.0633 45.4712 45.7367 45.3679 45.33 45.3679C44.95 45.3679 44.64 45.4679 44.4 45.6679C44.16 45.8612 44.04 46.1345 44.04 46.4879C44.04 46.7412 44.11 46.9479 44.25 47.1079C44.3967 47.2679 44.5733 47.3912 44.78 47.4779C44.9933 47.5579 45.29 47.6512 45.67 47.7579C46.13 47.8845 46.5 48.0112 46.78 48.1379C47.06 48.2579 47.3 48.4479 47.5 48.7079C47.7 48.9612 47.8 49.3079 47.8 49.7479C47.8 50.0879 47.71 50.4079 47.53 50.7079C47.35 51.0079 47.0833 51.2512 46.73 51.4379C46.3767 51.6245 45.96 51.7179 45.48 51.7179ZM51.8591 46.0679C52.2725 46.0679 52.6458 46.1579 52.9791 46.3379C53.3125 46.5112 53.5725 46.7745 53.7591 47.1279C53.9525 47.4812 54.0491 47.9112 54.0491 48.4179V51.6479H53.1491V48.5479C53.1491 48.0012 53.0125 47.5845 52.7391 47.2979C52.4658 47.0045 52.0925 46.8579 51.6191 46.8579C51.1391 46.8579 50.7558 47.0079 50.4691 47.3079C50.1891 47.6079 50.0491 48.0445 50.0491 48.6179V51.6479H49.1391V44.2479H50.0491V46.9479C50.2291 46.6679 50.4758 46.4512 50.7891 46.2979C51.1091 46.1445 51.4658 46.0679 51.8591 46.0679ZM57.9256 51.7379C57.4123 51.7379 56.9456 51.6212 56.5256 51.3879C56.1123 51.1545 55.7856 50.8245 55.5456 50.3979C55.3123 49.9645 55.1956 49.4645 55.1956 48.8979C55.1956 48.3379 55.3156 47.8445 55.5556 47.4179C55.8023 46.9845 56.1356 46.6545 56.5556 46.4279C56.9756 46.1945 57.4456 46.0779 57.9656 46.0779C58.4856 46.0779 58.9556 46.1945 59.3756 46.4279C59.7956 46.6545 60.1256 46.9812 60.3656 47.4079C60.6123 47.8345 60.7356 48.3312 60.7356 48.8979C60.7356 49.4645 60.609 49.9645 60.3556 50.3979C60.109 50.8245 59.7723 51.1545 59.3456 51.3879C58.919 51.6212 58.4456 51.7379 57.9256 51.7379ZM57.9256 50.9379C58.2523 50.9379 58.559 50.8612 58.8456 50.7079C59.1323 50.5545 59.3623 50.3245 59.5356 50.0179C59.7156 49.7112 59.8056 49.3379 59.8056 48.8979C59.8056 48.4579 59.719 48.0845 59.5456 47.7779C59.3723 47.4712 59.1456 47.2445 58.8656 47.0979C58.5856 46.9445 58.2823 46.8679 57.9556 46.8679C57.6223 46.8679 57.3156 46.9445 57.0356 47.0979C56.7623 47.2445 56.5423 47.4712 56.3756 47.7779C56.209 48.0845 56.1256 48.4579 56.1256 48.8979C56.1256 49.3445 56.2056 49.7212 56.3656 50.0279C56.5323 50.3345 56.7523 50.5645 57.0256 50.7179C57.299 50.8645 57.599 50.9379 57.9256 50.9379ZM66.9321 48.6979C66.9321 48.8712 66.9221 49.0545 66.9021 49.2479H62.5221C62.5554 49.7879 62.7388 50.2112 63.0721 50.5179C63.4121 50.8179 63.8221 50.9679 64.3021 50.9679C64.6954 50.9679 65.0221 50.8779 65.2821 50.6979C65.5488 50.5112 65.7354 50.2645 65.8421 49.9579H66.8221C66.6754 50.4845 66.3821 50.9145 65.9421 51.2479C65.5021 51.5745 64.9554 51.7379 64.3021 51.7379C63.7821 51.7379 63.3154 51.6212 62.9021 51.3879C62.4954 51.1545 62.1754 50.8245 61.9421 50.3979C61.7088 49.9645 61.5921 49.4645 61.5921 48.8979C61.5921 48.3312 61.7054 47.8345 61.9321 47.4079C62.1588 46.9812 62.4754 46.6545 62.8821 46.4279C63.2954 46.1945 63.7688 46.0779 64.3021 46.0779C64.8221 46.0779 65.2821 46.1912 65.6821 46.4179C66.0821 46.6445 66.3888 46.9579 66.6021 47.3579C66.8221 47.7512 66.9321 48.1979 66.9321 48.6979ZM65.9921 48.5079C65.9921 48.1612 65.9154 47.8645 65.7621 47.6179C65.6088 47.3645 65.3988 47.1745 65.1321 47.0479C64.8721 46.9145 64.5821 46.8479 64.2621 46.8479C63.8021 46.8479 63.4088 46.9945 63.0821 47.2879C62.7621 47.5812 62.5788 47.9879 62.5321 48.5079H65.9921ZM70.0733 51.7379C69.6533 51.7379 69.2766 51.6679 68.9433 51.5279C68.6099 51.3812 68.3466 51.1812 68.1533 50.9279C67.9599 50.6679 67.8533 50.3712 67.8333 50.0379H68.7733C68.7999 50.3112 68.9266 50.5345 69.1533 50.7079C69.3866 50.8812 69.6899 50.9679 70.0633 50.9679C70.4099 50.9679 70.6833 50.8912 70.8833 50.7379C71.0833 50.5845 71.1833 50.3912 71.1833 50.1579C71.1833 49.9179 71.0766 49.7412 70.8633 49.6279C70.6499 49.5079 70.3199 49.3912 69.8733 49.2779C69.4666 49.1712 69.1333 49.0645 68.8733 48.9579C68.6199 48.8445 68.3999 48.6812 68.2133 48.4679C68.0333 48.2479 67.9433 47.9612 67.9433 47.6079C67.9433 47.3279 68.0266 47.0712 68.1933 46.8379C68.3599 46.6045 68.5966 46.4212 68.9033 46.2879C69.2099 46.1479 69.5599 46.0779 69.9533 46.0779C70.5599 46.0779 71.0499 46.2312 71.4233 46.5379C71.7966 46.8445 71.9966 47.2645 72.0233 47.7979H71.1133C71.0933 47.5112 70.9766 47.2812 70.7633 47.1079C70.5566 46.9345 70.2766 46.8479 69.9233 46.8479C69.5966 46.8479 69.3366 46.9179 69.1433 47.0579C68.9499 47.1979 68.8533 47.3812 68.8533 47.6079C68.8533 47.7879 68.9099 47.9379 69.0233 48.0579C69.1433 48.1712 69.2899 48.2645 69.4633 48.3379C69.6433 48.4045 69.8899 48.4812 70.2033 48.5679C70.5966 48.6745 70.9166 48.7812 71.1633 48.8879C71.4099 48.9879 71.6199 49.1412 71.7933 49.3479C71.9733 49.5545 72.0666 49.8245 72.0733 50.1579C72.0733 50.4579 71.9899 50.7279 71.8233 50.9679C71.6566 51.2079 71.4199 51.3979 71.1133 51.5379C70.8133 51.6712 70.4666 51.7379 70.0733 51.7379Z" fill="#F7F8FD"/>
<path d="M18.3377 27.6092C17.6139 27.5076 17.0357 28.0562 16.9538 28.7578C16.8721 29.4574 17.3032 30.1496 18.0292 30.2515C18.6964 30.3448 19.3036 29.828 19.3889 29.0994C19.4739 28.3699 19.0035 27.7026 18.3377 27.6092Z" fill="#F7F8FD"/>
<path d="M81.3605 31.3303C81.3605 24.6932 76.4384 19.337 70.4243 19.337C66.5994 19.337 66.3955 18.8819 61.7888 15.9365C62.3611 14.6794 60.9928 13.4373 59.9737 14.2756L59.6314 14.5572L55.6717 12.0253C56.3467 10.7781 54.9593 9.40658 53.8978 10.2798L53.4795 10.6238L49.5481 8.11011C50.3355 6.86975 48.9166 5.38348 47.8219 6.28403L47.3276 6.69027L38.9313 1.32192C37.0136 0.0955451 34.5253 0.695414 33.2717 2.76157L32.8566 3.44569C31.9072 5.00871 31.908 7.02825 32.8582 8.59061L33.4093 9.49665L29.5406 11.6168C27.1203 12.9432 24.1467 12.1086 22.623 9.60304L20.4609 6.04812C18.1589 2.26393 13.0062 2.51633 11.0198 6.50713C8.27991 12.013 8.2995 11.9471 7.93601 12.7837C6.18326 16.5692 5.26685 21.9745 5.98214 27.1744L3.67602 33.4936C3.45091 34.1104 3.67496 34.815 4.20144 35.1447C9.94957 38.7449 16.4873 40.6479 23.1077 40.6479H70.0298C74.9515 40.6479 79.5648 37.3187 81.2999 31.7399C81.3349 31.6235 81.3599 31.4717 81.3605 31.3303ZM78.8884 30.42C75.1751 31.8681 70.2995 32.6563 66.3109 32.6563C60.3023 32.6563 54.2578 32.3581 48.2458 31.7702L53.4982 24.0946C58.521 26.2402 63.8013 27.3286 69.2091 27.3286C71.576 27.3286 73.3242 24.8926 72.7456 22.3565C76.0553 23.3874 78.5477 26.5629 78.8884 30.42ZM34.8797 4.92197C35.3609 4.12897 35.7264 3.35378 36.7986 3.35378C37.4933 3.35378 37.2042 3.30167 45.2174 8.42495L42.9613 10.2797C42.4243 10.721 42.3156 11.556 42.7181 12.1444C43.1202 12.7319 43.8821 12.8526 44.4194 12.4109L47.4959 9.88191L51.3693 12.3585L49.0371 14.2756C48.5001 14.717 48.3913 15.5519 48.7939 16.1403C49.196 16.7279 49.9579 16.8486 50.4951 16.4069L53.6476 13.8154L57.521 16.292L55.1128 18.2716C54.5759 18.713 54.4671 19.5479 54.8697 20.1363C55.2717 20.7238 56.0336 20.8445 56.5709 20.4028L59.7994 17.749L63.896 20.3682C65.6154 21.4674 67.6002 22.0012 69.2088 22.0012C69.8827 22.0012 70.424 22.5945 70.424 23.3331C70.424 24.0717 69.8827 24.665 69.2088 24.665C60.6354 24.665 52.4245 21.7221 45.6227 16.4593L36.0692 9.06844L34.8802 7.11349C34.4757 6.44769 34.4754 5.5876 34.8797 4.92197ZM13.1534 7.78329C14.2658 5.54781 17.1505 5.40895 18.4387 7.52623L20.6008 11.0812C22.8111 14.7155 27.1215 15.9209 30.6276 13.9997L35.0772 11.5613C44.8028 19.0852 46.549 20.6959 51.1933 23.0239L45.4116 31.473C43.977 31.3105 42.5454 31.1299 41.1166 30.9344C40.7206 28.5365 39.5348 26.5069 37.9573 25.125C35.7124 23.1556 33.2021 21.6106 30.497 20.5329L10.7299 12.6533L13.1534 7.78329ZM70.03 37.984H23.1077C17.2618 37.984 11.4842 36.3988 6.3312 33.3907L8.01165 28.786L13.1818 29.5429C13.8493 29.6403 14.4585 29.1258 14.5471 28.3989C14.6359 27.6699 14.1687 26.9999 13.5034 26.9025L8.3071 26.1418C7.89302 22.3898 8.36983 18.5571 9.67175 15.0661L29.6669 23.0364C32.1228 24.0147 34.4012 25.4172 36.4397 27.2055C37.3869 28.0351 38.1445 29.1969 38.5373 30.564C38.5216 30.5617 23.0105 28.2844 22.8697 28.2844C22.1986 28.2844 21.6553 28.8808 21.6553 29.6163C21.6553 30.2986 22.1241 30.861 22.7274 30.9389C39.162 33.3426 49.8079 35.3201 66.3112 35.3201C69.9706 35.3201 74.1905 34.7046 77.7455 33.6091C76.0077 36.3059 73.1579 37.984 70.03 37.984Z" fill="#F7F8FD"/>
</svg>
