<svg width="30" height="35" viewBox="0 0 30 35" fill="none" xmlns="http://www.w3.org/2000/svg">
<path d="M10.0441 33.753C17.3231 37.0939 26.9391 33.4396 30 26.1563C25.0891 30.0293 19.9134 30.7067 14.6559 27.1873C10.0285 24.0897 7.83715 19.3122 8.51482 13.5046C9.37719 6.11402 13.6848 2.01673 20.401 0.690836C14.1769 -1.44325 4.68404 1.16818 1.0462 11.3166C-1.76499 19.1602 1.04143 29.6205 10.0441 33.753Z" fill="white"/>
<path d="M19.4943 7.4431L21.587 9.64207L21.1046 12.8523C21.0307 13.3447 21.3133 13.5844 21.7358 13.3877L24.3277 12.1811L26.9195 13.3877C27.342 13.5844 27.6089 13.3478 27.5158 12.8591L26.902 9.64188L29.1441 7.42311C29.4838 7.08703 29.3926 6.74181 28.9403 6.65221L26.1094 6.09154L24.7252 3.32563C24.5058 2.88718 24.15 2.88718 23.9305 3.32563L22.5464 6.09154L19.7152 6.65247C19.2629 6.74194 19.164 7.09578 19.4943 7.4431Z" fill="white"/>
<path d="M24.0553 20.6578L22.0181 20.2545L21.0218 18.2639C20.8638 17.9484 20.6079 17.9484 20.4499 18.2639L19.4536 20.2545L17.4166 20.6578C17.0911 20.7221 17.02 20.9769 17.2577 21.2268L18.7636 22.8093L18.4165 25.1196C18.3632 25.4739 18.5666 25.6464 18.8708 25.5049L20.7359 24.6367L22.6009 25.5049C22.9051 25.6464 23.0972 25.4763 23.03 25.1245L22.5882 22.8093L24.2018 21.2127C24.4466 20.9705 24.3808 20.7221 24.0553 20.6578Z" fill="white"/>
</svg>
