<svg width="30" height="36" viewBox="0 0 30 36" fill="none" xmlns="http://www.w3.org/2000/svg">
<path d="M30 31.7677C30 32.5228 29.3782 33.1349 28.6111 33.1349H27.2222V34.502C27.2222 35.2571 26.6004 35.8692 25.8333 35.8692C25.0663 35.8692 24.4444 35.2571 24.4444 34.502V33.1349H23.0556C22.2885 33.1349 21.6667 32.5228 21.6667 31.7677C21.6667 31.0126 22.2885 30.4005 23.0556 30.4005H24.4444V29.0333C24.4444 28.2782 25.0663 27.6661 25.8333 27.6661C26.6004 27.6661 27.2222 28.2782 27.2222 29.0333V30.4005H28.6111C29.3782 30.4005 30 31.0126 30 31.7677ZM30 10.4395V23.5645C30 24.3196 29.3782 24.9317 28.6111 24.9317C27.844 24.9317 27.2222 24.3196 27.2222 23.5645V11.8067H24.4444V15.9083C24.4444 16.6634 23.8226 17.2755 23.0556 17.2755C22.2885 17.2755 21.6667 16.6634 21.6667 15.9083V11.8067H8.33333V15.9083C8.33333 16.6634 7.71153 17.2755 6.94444 17.2755C6.17736 17.2755 5.55556 16.6634 5.55556 15.9083V11.8067H2.77778V33.1349H17.5C18.2671 33.1349 18.8889 33.7469 18.8889 34.502C18.8889 35.2571 18.2671 35.8692 17.5 35.8692H1.38889C0.621806 35.8692 0 35.2571 0 34.502V10.4395C0 9.68445 0.621806 9.07236 1.38889 9.07236H5.62125C6.17299 4.45967 10.1683 0.869232 15 0.869232C19.8317 0.869232 23.827 4.45967 24.3787 9.07236H28.6111C29.3782 9.07236 30 9.68445 30 10.4395ZM21.5735 9.07236C21.043 5.9726 18.2974 3.60361 15 3.60361C11.7026 3.60361 8.95701 5.9726 8.42646 9.07236H21.5735Z" fill="white"/>
</svg>
