<svg width="30" height="35" viewBox="0 0 30 35" fill="none" xmlns="http://www.w3.org/2000/svg">
<path d="M15 8.73373C10.8568 8.73373 7.48608 12.667 7.48608 17.5008C7.48608 22.3346 10.8568 26.2678 15 26.2678C19.1426 26.2678 22.5139 22.3354 22.5139 17.5008C22.5139 12.6662 19.1426 8.73373 15 8.73373Z" fill="black"/>
<path d="M14.9999 6.15678C14.1902 6.15678 13.5339 5.39105 13.5339 4.44708V1.71047C13.5339 0.765722 14.1902 0 14.9999 0C15.8097 0 16.466 0.765722 16.466 1.71047V4.44708C16.466 5.39105 15.809 6.15678 14.9999 6.15678Z" fill="black"/>
<path d="M15 28.8424C14.1902 28.8424 13.5339 29.6082 13.5339 30.5529V33.2887C13.5339 34.2343 14.1902 35 15 35C15.8098 35 16.4661 34.2343 16.4661 33.2887V30.5529C16.4661 29.6082 15.8091 28.8424 15 28.8424Z" fill="black"/>
<path d="M21.8743 9.4793C21.3023 8.81123 21.3023 7.72853 21.8743 7.06046L23.533 5.12523C24.105 4.45793 25.0337 4.45793 25.6063 5.12523C26.1789 5.7933 26.1789 6.87678 25.6063 7.54407L23.9475 9.4793C23.3756 10.1474 22.4476 10.1474 21.8743 9.4793Z" fill="black"/>
<path d="M8.1251 25.5215C7.55248 24.8526 6.62445 24.8526 6.05183 25.5215L4.39309 27.4559C3.82113 28.1232 3.82046 29.2075 4.39309 29.8748C4.96571 30.5421 5.89439 30.5421 6.46635 29.8748L8.1251 27.9388C8.69772 27.2715 8.69772 26.188 8.1251 25.5215Z" fill="black"/>
<path d="M24.722 17.5C24.722 16.5552 25.3784 15.7895 26.1882 15.7895H28.5339C29.3437 15.7895 30 16.5552 30 17.5C30 18.4447 29.3437 19.2097 28.5339 19.2097H26.1882C25.3784 19.2097 24.722 18.4447 24.722 17.5Z" fill="black"/>
<path d="M5.27722 17.5C5.27722 16.5552 4.62089 15.7895 3.81111 15.7895H1.46612C0.656331 15.7895 0 16.5552 0 17.5C0 18.4447 0.656331 19.2097 1.46612 19.2097H3.81177C4.62089 19.2097 5.27722 18.4447 5.27722 17.5Z" fill="black"/>
<path d="M21.8742 25.5215C22.4468 24.8542 23.3755 24.8542 23.9475 25.5215L25.6063 27.4567C26.1789 28.1232 26.1789 29.2075 25.6063 29.8748C25.0337 30.5421 24.1056 30.5421 23.533 29.8748L21.8742 27.9395C21.3015 27.2715 21.3015 26.1888 21.8742 25.5215Z" fill="black"/>
<path d="M8.1251 9.47928C8.69772 8.81122 8.69772 7.72851 8.1251 7.06044L6.46635 5.12599C5.89373 4.45792 4.96571 4.45792 4.39309 5.12599C3.82047 5.79328 3.82047 6.87676 4.39309 7.54406L6.05183 9.47928C6.62446 10.1481 7.55248 10.1481 8.1251 9.47928Z" fill="black"/>
</svg>
